<svg height="1597" xmlns="http://www.w3.org/2000/svg" viewBox="0 0 1132 1597" xmlns:ev="http://www.w3.org/2001/xml-events" xmlns:xlink="http://www.w3.org/1999/xlink" width="1132"><style type="text/css"><![CDATA[
.st1 {fill:#191919;font-family:Times New Roman;font-size:12pt}
]]></style><defs/><g id="page1" transform="translate(5,5)"><rect height="1587" stroke="#808080" x="0" y="0" width="1123" fill="#ffffff"/><g transform="translate(378,105.35)"><path stroke="#323232" d="M11,0L367,0C373.1,0,378,4.9,378,11L378,572C378,578.1,373.1,583,367,583L11,583C4.9,583,0,578.1,0,572L0,11C0,4.9,4.9,0,11,0z" id="shape1" fill="none"/><g id="shape2" transform="translate(10,0)"><text class="st1"><tspan x="120" y="19.5">User Management</tspan></text></g></g><g id="shape3" transform="translate(423,171.35)"><path stroke="#323232" d="M0,40C0,17.9,26.9,0,60,0C93.1,0,120,17.9,120,40C120,62.1,93.1,80,60,80C26.9,80,0,62.1,0,40z" fill="#ffffff" fill-rule="evenodd"/><text class="st1"><tspan x="33" y="44.5">Register</tspan></text></g><g id="shape4" transform="translate(423,402.2)"><path stroke="#323232" d="M0,40C0,17.9,26.9,0,60,0C93.1,0,120,17.9,120,40C120,62.1,93.1,80,60,80C26.9,80,0,62.1,0,40z" fill="#ffffff" fill-rule="evenodd"/><text class="st1"><tspan x="41" y="44.5">Login</tspan></text></g><g id="shape5" transform="translate(597,459.35)"><path stroke="#323232" d="M0,40C0,17.9,26.9,0,60,0C93.1,0,120,17.9,120,40C120,62.1,93.1,80,60,80C26.9,80,0,62.1,0,40z" fill="#ffffff" fill-rule="evenodd"/><text class="st1"><tspan x="9" y="44.5">Generate Token</tspan></text></g><g id="shape6" transform="translate(597,286.78)"><path stroke="#323232" d="M0,40C0,17.9,26.9,0,60,0C93.1,0,120,17.9,120,40C120,62.1,93.1,80,60,80C26.9,80,0,62.1,0,40z" fill="#ffffff" fill-rule="evenodd"/><text class="st1"><tspan x="6" y="44.5">Invalidate Token</tspan></text></g><g id="shape7" transform="translate(423,286.78)"><path stroke="#323232" d="M0,40C0,17.9,26.9,0,60,0C93.1,0,120,17.9,120,40C120,62.1,93.1,80,60,80C26.9,80,0,62.1,0,40z" fill="#ffffff" fill-rule="evenodd"/><text class="st1"><tspan x="33" y="44.5">Log Out</tspan></text></g><g id="shape8" transform="translate(423,524.35)"><path stroke="#323232" d="M0,40C0,17.9,26.9,0,60,0C93.1,0,120,17.9,120,40C120,62.1,93.1,80,60,80C26.9,80,0,62.1,0,40z" fill="#ffffff" fill-rule="evenodd"/><text class="st1"><tspan x="10" y="44.5">Reset Password</tspan></text></g><g transform="translate(372.26,910)"><path stroke="#323232" d="M11,0L367,0C373.1,0,378,4.9,378,11L378,572C378,578.1,373.1,583,367,583L11,583C4.9,583,0,578.1,0,572L0,11C0,4.9,4.9,0,11,0z" id="shape9" fill="none"/><g id="shape10" transform="translate(10,0)"><text class="st1"><tspan x="135" y="19.5">Authorization</tspan></text></g></g><g transform="translate(203.48,246)"><path stroke="#323232" d="M16,0L16,21.2L0,42.4M16,21.2L32,42.4M0,8.5L32,8.5" id="shape11" fill="none" transform="translate(0,17.6)"/><path stroke="#323232" d="M0,8.8C0,3.9,3.9,0,8.8,0C13.7,0,17.6,3.9,17.6,8.8C17.6,13.7,13.7,17.6,8.8,17.6C3.9,17.6,0,13.7,0,8.8z" id="shape12" fill="#ffffff" fill-rule="evenodd" transform="translate(7.2,0)"/><text class="st1"><tspan x="2.1" y="78.2">User</tspan></text></g><path stroke="#323232" d="M0,0L187.5,-64.6" id="shape13" fill="none" transform="translate(235.48,276)"/><path stroke="#323232" d="M0,0L187.5,50.8" id="shape14" fill="none" transform="translate(235.48,276)"/><path stroke="#323232" d="M0,0L187.5,166.2" id="shape15" fill="none" transform="translate(235.48,276)"/><path stroke="#323232" d="M0,0L187.5,288.4" id="shape16" fill="none" transform="translate(235.48,276)"/><g id="shape17" transform="translate(543,564.35)"><path stroke="#323232" stroke-dasharray="11,5" d="M0,0L54,-65" fill="none"/><path stroke-width="1" stroke="#323232" d="M41.7,-59.6L54,-65L50.9,-51.9" stroke-linejoin="round" stroke-linecap="round" fill="none"/><rect height="19" x="-11.7" y="-45.4" width="84.8" fill="#ffffff"/><text class="st1"><tspan x="-11.8" y="-31.4">&lt;&lt;include>></tspan></text></g><g id="shape18" transform="translate(543,442.2)"><path stroke="#323232" stroke-dasharray="11,5" d="M0,0L54,57.1" fill="none"/><path stroke-width="1" stroke="#323232" d="M50.1,44.3L54,57.1L41.4,52.5" stroke-linejoin="round" stroke-linecap="round" fill="none"/><rect height="19" x="-17.3" y="16.1" width="84.8" fill="#ffffff"/><text class="st1"><tspan x="-17.4" y="30.1">&lt;&lt;include>></tspan></text></g><g id="shape19" transform="translate(543,326.78)"><path stroke="#323232" stroke-dasharray="11,5" d="M0,0L54,0" fill="none"/><path stroke-width="1" stroke="#323232" d="M42,-6L54,0L42,6" stroke-linejoin="round" stroke-linecap="round" fill="none"/><rect height="19" x="-36.5" y="-25.5" width="84.8" fill="#ffffff"/><text class="st1"><tspan x="-36.6" y="-11.5">&lt;&lt;include>></tspan></text></g><g id="shape20" transform="translate(840,281.78)"><path stroke="#323232" d="M0,0L120,0L120,90L0,90L0,0zM0,45L0,45" fill="#ffffff" fill-rule="evenodd"/><text class="st1"><tspan x="26" y="18">&lt;&lt;actor>></tspan><tspan x="6" y="37">token invalidator</tspan></text></g><path stroke="#323232" d="M0,0L123,0" id="shape21" fill="none" transform="translate(717,326.78)"/></g></svg>