<svg xmlns:xlink="http://www.w3.org/1999/xlink" viewBox="0 0 1132 1597" xmlns:ev="http://www.w3.org/2001/xml-events" width="1132" xmlns="http://www.w3.org/2000/svg" height="1597"><style type="text/css"><![CDATA[
.st1 {fill:#191919;font-family:Times New Roman;font-size:12pt}
]]></style><defs/><g transform="translate(5,5)" id="page1"><rect x="0" width="1123" y="0" height="1587" fill="#ffffff" stroke="#808080"/><g transform="translate(378,105.35)"><path d="M11,0L367,0C373.1,0,378,4.9,378,11L378,572C378,578.1,373.1,583,367,583L11,583C4.9,583,0,578.1,0,572L0,11C0,4.9,4.9,0,11,0z" id="shape1" fill="none" stroke="#323232"/><g transform="translate(10,0)" id="shape2"><text class="st1"><tspan x="108" y="19.5">Account Management</tspan></text></g></g><g transform="translate(423,171.35)" id="shape3"><path d="M0,40C0,17.9,26.9,0,60,0C93.1,0,120,17.9,120,40C120,62.1,93.1,80,60,80C26.9,80,0,62.1,0,40z" fill="#ffffff" fill-rule="evenodd" stroke="#323232"/><text class="st1"><tspan x="33" y="44.5">Register</tspan></text></g><g transform="translate(423,402.2)" id="shape4"><path d="M0,40C0,17.9,26.9,0,60,0C93.1,0,120,17.9,120,40C120,62.1,93.1,80,60,80C26.9,80,0,62.1,0,40z" fill="#ffffff" fill-rule="evenodd" stroke="#323232"/><text class="st1"><tspan x="41" y="44.5">Login</tspan></text></g><g transform="translate(597,459.35)" id="shape5"><path d="M0,40C0,17.9,26.9,0,60,0C93.1,0,120,17.9,120,40C120,62.1,93.1,80,60,80C26.9,80,0,62.1,0,40z" fill="#ffffff" fill-rule="evenodd" stroke="#323232"/><text class="st1"><tspan x="9" y="44.5">Generate Token</tspan></text></g><g transform="translate(597,286.78)" id="shape6"><path d="M0,40C0,17.9,26.9,0,60,0C93.1,0,120,17.9,120,40C120,62.1,93.1,80,60,80C26.9,80,0,62.1,0,40z" fill="#ffffff" fill-rule="evenodd" stroke="#323232"/><text class="st1"><tspan x="6" y="44.5">Invalidate Token</tspan></text></g><g transform="translate(423,286.78)" id="shape7"><path d="M0,40C0,17.9,26.9,0,60,0C93.1,0,120,17.9,120,40C120,62.1,93.1,80,60,80C26.9,80,0,62.1,0,40z" fill="#ffffff" fill-rule="evenodd" stroke="#323232"/><text class="st1"><tspan x="33" y="44.5">Log Out</tspan></text></g><g transform="translate(423,524.35)" id="shape8"><path d="M0,40C0,17.9,26.9,0,60,0C93.1,0,120,17.9,120,40C120,62.1,93.1,80,60,80C26.9,80,0,62.1,0,40z" fill="#ffffff" fill-rule="evenodd" stroke="#323232"/><text class="st1"><tspan x="10" y="44.5">Reset Password</tspan></text></g><g transform="translate(372.26,910)"><path d="M11,0L367,0C373.1,0,378,4.9,378,11L378,572C378,578.1,373.1,583,367,583L11,583C4.9,583,0,578.1,0,572L0,11C0,4.9,4.9,0,11,0z" id="shape9" fill="none" stroke="#323232"/><g transform="translate(10,0)" id="shape10"><text class="st1"><tspan x="135" y="19.5">Authorization</tspan></text></g></g><g transform="translate(203.48,246)"><path d="M16,0L16,21.2L0,42.4M16,21.2L32,42.4M0,8.5L32,8.5" transform="translate(0,17.6)" id="shape11" fill="none" stroke="#323232"/><path d="M0,8.8C0,3.9,3.9,0,8.8,0C13.7,0,17.6,3.9,17.6,8.8C17.6,13.7,13.7,17.6,8.8,17.6C3.9,17.6,0,13.7,0,8.8z" transform="translate(7.2,0)" id="shape12" fill="#ffffff" fill-rule="evenodd" stroke="#323232"/><text class="st1"><tspan x="2.1" y="78.2">User</tspan></text></g><path d="M0,0L187.5,-64.6" transform="translate(235.48,276)" id="shape13" fill="none" stroke="#323232"/><path d="M0,0L187.5,50.8" transform="translate(235.48,276)" id="shape14" fill="none" stroke="#323232"/><path d="M0,0L187.5,166.2" transform="translate(235.48,276)" id="shape15" fill="none" stroke="#323232"/><path d="M0,0L187.5,288.4" transform="translate(235.48,276)" id="shape16" fill="none" stroke="#323232"/><g transform="translate(543,564.35)" id="shape17"><path stroke-dasharray="11,5" d="M0,0L54,-65" fill="none" stroke="#323232"/><path stroke-linecap="round" stroke-width="1" stroke-linejoin="round" d="M41.7,-59.6L54,-65L50.9,-51.9" fill="none" stroke="#323232"/><rect x="-11.7" width="84.8" y="-45.4" height="19" fill="#ffffff"/><text class="st1"><tspan x="-11.8" y="-31.4">&lt;&lt;include>></tspan></text></g><g transform="translate(543,442.2)" id="shape18"><path stroke-dasharray="11,5" d="M0,0L54,57.1" fill="none" stroke="#323232"/><path stroke-linecap="round" stroke-width="1" stroke-linejoin="round" d="M50.1,44.3L54,57.1L41.4,52.5" fill="none" stroke="#323232"/><rect x="-17.3" width="84.8" y="16.1" height="19" fill="#ffffff"/><text class="st1"><tspan x="-17.4" y="30.1">&lt;&lt;include>></tspan></text></g><g transform="translate(543,326.78)" id="shape19"><path stroke-dasharray="11,5" d="M0,0L54,0" fill="none" stroke="#323232"/><path stroke-linecap="round" stroke-width="1" stroke-linejoin="round" d="M42,-6L54,0L42,6" fill="none" stroke="#323232"/><rect x="-36.5" width="84.8" y="-25.5" height="19" fill="#ffffff"/><text class="st1"><tspan x="-36.6" y="-11.5">&lt;&lt;include>></tspan></text></g><g transform="translate(840,281.78)" id="shape20"><path d="M0,0L120,0L120,90L0,90L0,0zM0,45L0,45" fill="#ffffff" fill-rule="evenodd" stroke="#323232"/><text class="st1"><tspan x="26" y="18">&lt;&lt;actor>></tspan><tspan x="6" y="37">token invalidator</tspan></text></g><path d="M0,0L123,0" transform="translate(717,326.78)" id="shape21" fill="none" stroke="#323232"/><g transform="translate(476.26,1145)" id="shape22"><text class="st1"><tspan x="11" y="61">Still not yet considered</tspan></text></g></g></svg>